<?xml version="1.0" encoding="utf-8"?>
<!-- Svg Vector Icons : http://www.onlinewebfonts.com/icon -->
<!DOCTYPE svg PUBLIC "-//W3C//DTD SVG 1.1//EN" "http://www.w3.org/Graphics/SVG/1.1/DTD/svg11.dtd">
<svg version="1.1" xmlns="http://www.w3.org/2000/svg" xmlns:xlink="http://www.w3.org/1999/xlink" x="0px" y="0px" viewBox="0 0 1000 1000" enable-background="new 0 0 1000 1000" xml:space="preserve">
<metadata> Svg Vector Icons : http://www.onlinewebfonts.com/icon </metadata>
<g><path d="M989.5,439.3c-4.7-21.8-43.1-41.8-104.5-57.9c-15.3-4.1-16.1,12.3-11.5,14.6c28.6,12.8,47,26.9,47,41.8c0,57.4-208.3,91.3-420.4,91.8c-212.2-0.4-420.4-34.4-420.4-91.8c0-14.6,17.8-28.4,45.4-41c5.6-1.9,4.4-19.8-12.5-14.7c-59.9,16-97.3,35.7-101.9,57.2H10v21.2c0,7.2,3.6,13.5,9.1,17.4v0.1c49.5,29.3,84.6,80.2,92.2,139.8c7.1,46.1,29.7,234.3,388.7,236c359.1-1.7,381.6-189.9,388.7-236c7.6-59.6,42.7-110.5,92.2-139.8v-0.1c5.5-3.8,9.1-10.2,9.1-17.4v-21.2H989.5z M872.1,437.7C841,318.2,730.5,246.4,589.6,225.4c-5.8-44.6-43.4-79.1-89.6-79.1c-46.1,0-83.8,34.5-89.6,79.1c-140.9,21-251.3,92.7-282.5,212.3c100.9,38.5,230.6,53.4,372,53.4C641.5,491.1,771.1,476.3,872.1,437.7z M500,182.7c24.5,0,44.9,16.3,51.8,38.5c-17-1.4-34.2-2.3-51.7-2.3c-17.6,0-34.9,0.9-51.8,2.3C455.1,198.9,475.5,182.7,500,182.7z"/></g>
</svg>