<svg xmlns="http://www.w3.org/2000/svg" viewBox="0 0 488.11 341.29"><defs><style>.cls-1{fill:#933;}.cls-2{fill:#fff;}.cls-3{fill:#1d1d1b;}.cls-4{fill:#e3db00;stroke:#ffed00;stroke-miterlimit:10;}</style></defs><g id="circle"><circle class="cls-1" cx="241.97" cy="145.54" r="145.54"/></g><g id="text"><path class="cls-2" d="M193.64,48.43c-4.24-1.49-7.82-4.62-10.45-9.76a17.45,17.45,0,0,1-2.14-9.84,14.68,14.68,0,0,1,4.07-8.65,23.38,23.38,0,0,1,9.62-5.95,17.43,17.43,0,0,1,7.83-.77,14,14,0,0,1,3.22.75,9.62,9.62,0,0,1,1.74-2.54c.67-.61,1.05-.94,1.12-1l1.63-.38,2.1,9.15-2.44.58a12.19,12.19,0,0,0-3.47-3.54,11.7,11.7,0,0,0-4.59-1.95,10.69,10.69,0,0,0-5.54.45,8.7,8.7,0,0,0-5.77,6.29c-.89,3.19-.11,7.51,2.17,13s4.84,9.17,7.43,10.93a8.77,8.77,0,0,0,8.06,1.26,9.82,9.82,0,0,0,4.1-2.6,11.91,11.91,0,0,0,2.66-4.3,8.48,8.48,0,0,0,.33-4.81l1.36-.31a9.55,9.55,0,0,1-.44,5.5A12.94,12.94,0,0,1,213,44.81,14,14,0,0,1,207.63,48C202.43,49.68,197.91,49.92,193.64,48.43Z"/><path class="cls-2" d="M248.7,22.17a12.44,12.44,0,0,1,1.48,6.88,13.08,13.08,0,0,1-4.12,9.49c-2.49,2.29-5.74,3.47-9.93,3.77s-7.57-.41-10.38-2.33a13.09,13.09,0,0,1-5.43-8.81c-.76-4,0-7.43,2.45-10.18s6.37-4.44,11.51-4.81a20.86,20.86,0,0,1,6.86.57c1.11-.09,2.08-.18,2.91-.29l1.8-.19.06-6.27.78-.14a9.49,9.49,0,0,1,1.82-.06,2.46,2.46,0,0,1,2,1.06,4.19,4.19,0,0,1,.64,2.7,3.3,3.3,0,0,1-1.84,2.82c-1.16.67-3.09,1-5.79,1.22A10.93,10.93,0,0,1,248.7,22.17Zm-9.3,16.19c.89-1.88,1.3-5,1.17-9.39s-.75-7.47-1.94-9.27-2.63-2.65-4.28-2.53-3,1.16-3.88,3.11-1.11,5.1-.62,9.45,1.34,7.39,2.48,9.13,2.37,2.56,3.73,2.46S238.52,40.25,239.4,38.36Z"/><path class="cls-2" d="M253.78,40.91c1.05-.17,2.1-.32,3.16-.46q1.14-10.8,2.29-21.62c-1.19-.38-2.4-.73-3.61-1.08l.06-.74q2.79.22,5.55.55a7.83,7.83,0,0,1,5.42,2.66,6.21,6.21,0,0,1,1,2A9.11,9.11,0,0,1,270,20.39a9.34,9.34,0,0,1,6.71-.87,13.75,13.75,0,0,1,5.86,2.8,9.4,9.4,0,0,1,3,4.48,9.36,9.36,0,0,1,2.58-1.61,9.22,9.22,0,0,1,6.87-.09,14.43,14.43,0,0,1,5.18,3.26,9.17,9.17,0,0,1,2.56,4.39,6.44,6.44,0,0,1-.45,4.32q-3.39,7.14-6.8,14.28c.85.68,1.7,1.37,2.53,2.07l-.34.66c-2-1-4.08-2-6.16-2.92-2.86-1.24-3.78-3.16-2.71-5.94q2.34-6,4.69-12a7.72,7.72,0,0,0,.6-4.93,3.45,3.45,0,0,0-2.06-2.48,5,5,0,0,0-4.1.68A11.94,11.94,0,0,0,286.17,28q-2.79,8.7-5.57,17.42c.92.55,1.84,1.12,2.74,1.69l-.24.7a117.9,117.9,0,0,0-13.91-3.91l.16-.72c1.06,0,2.13,0,3.2,0q1.88-7.68,3.74-15.36a7.72,7.72,0,0,0-.05-5,3.4,3.4,0,0,0-2.34-2.17A5,5,0,0,0,270,21.89a12.44,12.44,0,0,0-1.61,1.72q-1.59,9-3.19,18c1,.42,2,.86,2.92,1.31l-.15.73a114.06,114.06,0,0,0-14.21-2Z"/><path class="cls-2" d="M140.32,232.62c.85.6,1.7,1.19,2.56,1.77l7.56-7.92c-.74-.7-1.47-1.42-2.19-2.14l.75-.75c.72.72,1.44,1.43,2.17,2.13l7.32-7.66c-.5-.72-1-1.45-1.48-2.18l.38-.38q3.87,3.85,8,7.3c3.85,3.21,6.27,6.28,7.27,9.61a11.5,11.5,0,0,1-1.54,9.91,10.09,10.09,0,0,1-8.78,5.1c-3.76,0-8.15-1.78-12.78-5.65q-4.93-4.12-9.6-8.76Zm9.79,8.47c2.39,2,4.84,2.77,7.23,2.35s4.78-2.32,7.18-5.64,3.52-6.13,3.43-8.42a7.88,7.88,0,0,0-3.14-5.91l-1-.82-7,8.19q2.11,1.8,4.27,3.5l-.65.83q-2.19-1.71-4.3-3.52L149,240.11Z"/><path class="cls-2" d="M171.74,254.86a7.8,7.8,0,0,1,.6-7.62,8.56,8.56,0,0,1,6.22-4.3c2.62-.42,5.44.19,8.61,1.75s5.36,3.39,6.61,5.7a8.66,8.66,0,0,1,.36,7.54,7.84,7.84,0,0,1-5.6,5.16c-2.71.68-6,.19-9.6-1.59S172.89,257.43,171.74,254.86Zm10.51-14.12q4.11-1.06,8-2.39,1.35,3.9,3,7.79l-1.36-.59c-1.07-1.39-2.11-2.78-3.12-4.19-1.73.07-3.48.1-5.24.09Zm.8,19.74c1.35-.83,2.65-2.68,3.94-5.54s1.83-5.05,1.66-6.58a3.2,3.2,0,0,0-5.29-2.59c-1.32.8-2.73,2.58-4.19,5.34s-2.13,4.94-1.95,6.52a3.62,3.62,0,0,0,5.83,2.85Zm10.63-18.87q-1.44-3.54-2.62-7.09,2.28,1.14,4.59,2.17c-.24,1.83-.47,3.66-.67,5.49C194.55,242,194.11,241.81,193.68,241.61Z"/><path class="cls-2" d="M194.77,267c1,.15,1.93.3,2.89.43l4.92-14.73c-.75-.44-1.5-.88-2.25-1.34l.18-.5c1.2.43,2.41.84,3.62,1.23a5.82,5.82,0,0,1,3.39,2.44,4.76,4.76,0,0,1,.55,1.51,7.34,7.34,0,0,1,6.78-1.54,11.33,11.33,0,0,1,4,1.69,8,8,0,0,1,2.51,2.68,4.53,4.53,0,0,1,.6,3q-.93,5.58-1.85,11.15c.91.33,1.82.65,2.74,1l-.08.52q-3.08-.45-6.14-1c-2.82-.54-4-1.9-3.54-4q1-4.49,2-9a5.33,5.33,0,0,0-.21-3.54,2.87,2.87,0,0,0-1.9-1.66,4,4,0,0,0-3.17.64,6.4,6.4,0,0,0-1.29,1.12L205,269.67l2.63,1.25-.13.51q-6.51-1.67-12.89-3.92Z"/><path class="cls-2" d="M229.18,282.32a10,10,0,0,1-3.83-1.87,2.39,2.39,0,0,1-1-2,2.28,2.28,0,0,1,1.23-1.78,4.44,4.44,0,0,1,2.7-.42c.25,0,.71.11,1.37.24l.53.12c-.16,1.64-.31,3.28-.46,4.92.38.13,1,.31,1.85.52a23.92,23.92,0,0,0,4.31.64c4.06.21,7.05-.19,8.91-1s2.76-1.86,2.73-3.06c-.05-1.53-2-2.22-5.8-2.27q-4.55-.06-9.08-.41a10.43,10.43,0,0,1-5.35-1.61,3.17,3.17,0,0,1-1.54-3c.15-1.12,1-2,2.51-2.72a11.13,11.13,0,0,1,2.27-.65,5.72,5.72,0,0,1-2.2-2.17,4.64,4.64,0,0,1-.41-2.73,5,5,0,0,1,2.86-3.93c1.69-.9,4-1.23,7-1.09a22.9,22.9,0,0,1,3.62.46,10.17,10.17,0,0,1,2.67.93,4.09,4.09,0,0,1,.88-1.07,4.85,4.85,0,0,1,3.08-1.12,3.61,3.61,0,0,1,2.41.74,2.74,2.74,0,0,1,1.09,2.11,2.2,2.2,0,0,1-.57,1.7,2.4,2.4,0,0,1-1.68.71,10.53,10.53,0,0,1-1.09,0l-.43-.1-.12-4.23a3.12,3.12,0,0,0-2.05.92,3.05,3.05,0,0,0-.67.89,4.91,4.91,0,0,1,2.22,4,4.7,4.7,0,0,1-2.43,4.25c-1.68,1.08-4.2,1.61-7.49,1.45a16.27,16.27,0,0,1-5.85-1.29c-.31.1-.63.18-.94.27a3,3,0,0,0-.72.34.58.58,0,0,0-.28.45c0,.4.2.73.71,1a8.34,8.34,0,0,0,2.85.57c2.92.22,5.85.36,8.78.4a9.24,9.24,0,0,1,5.47,1.52,5.22,5.22,0,0,1,2.14,4.23c.07,1.87-.95,3.45-3.13,4.67s-5.52,1.8-9.94,1.59A30.87,30.87,0,0,1,229.18,282.32Zm10.52-14.39a7,7,0,0,0,.94-4,7.5,7.5,0,0,0-.69-4,2.54,2.54,0,0,0-2.14-1.21,2.59,2.59,0,0,0-2.24,1,7.42,7.42,0,0,0-1.06,3.93,6.9,6.9,0,0,0,.55,4,2.92,2.92,0,0,0,4.64.22Z"/><path class="cls-2" d="M284.78,275.74a6.88,6.88,0,0,1-3.55-1.21,4.57,4.57,0,0,1-1.76-2.64,13.13,13.13,0,0,1-9.19-2.19,11.52,11.52,0,0,1-4.35-7.82,14.23,14.23,0,0,1,.5-7.18,11.75,11.75,0,0,1,3.71-5.2,18.9,18.9,0,0,1,13.33-3.66,11.82,11.82,0,0,1,5.89,2.57,14.07,14.07,0,0,1,4.13,5.9,11.47,11.47,0,0,1,.23,9,13.22,13.22,0,0,1-6.83,6.59c.92,3,2.17,4.33,3.76,3.82a2.68,2.68,0,0,0,1-.51,1.6,1.6,0,0,0,.32-.29l.75.68a4.47,4.47,0,0,1-.67.52,10.16,10.16,0,0,1-2.5,1.06A12.46,12.46,0,0,1,284.78,275.74Zm1.33-7.23a7.91,7.91,0,0,0,1.34-4.48,20.19,20.19,0,0,0-1.25-7.1,23.26,23.26,0,0,0-3.1-6.49,9,9,0,0,0-3.33-3,4.36,4.36,0,0,0-5.66,1.55,8.89,8.89,0,0,0-1.3,4.3,23.3,23.3,0,0,0,.66,7.17,20.29,20.29,0,0,0,2.54,6.73,8,8,0,0,0,3.44,3.17,5.55,5.55,0,0,0,6.66-1.82Z"/><path class="cls-2" d="M307.87,261.19a8.11,8.11,0,0,1-4-.55,4.15,4.15,0,0,1-2.23-2.1q-2.3-5.16-4.58-10.33-1.29.28-2.58.54l-.21-.49c1.71-.71,3.4-1.47,5.08-2.26,2.32-1.1,3.95-.76,4.91,1.13q2.08,4.1,4.16,8.19a4.84,4.84,0,0,0,2.51,2.54,3.31,3.31,0,0,0,2.81-.14,4.51,4.51,0,0,0,2.16-2.82,8.18,8.18,0,0,0,.25-1.78l-6.54-11.3c-.85.28-1.69.56-2.54.82l-.25-.46c3.52-2,7-4.08,10.35-6.38l.3.44-1.9,1.9,9.17,14-.42.27a8.35,8.35,0,0,1-5.38,1.69,3.51,3.51,0,0,1-1.72-.62,8.11,8.11,0,0,1-.59,2.18,8.61,8.61,0,0,1-4,4A12.58,12.58,0,0,1,307.87,261.19Z"/><path class="cls-2" d="M331.29,245a7.72,7.72,0,0,1-6.81-3.53,9,9,0,0,1-1.75-4.87,9.47,9.47,0,0,1,1.15-4.93,14.68,14.68,0,0,1,3.68-4.45,17.58,17.58,0,0,1,4.86-3,9.86,9.86,0,0,1,4.54-.79,5.41,5.41,0,0,1,3.48,1.54,4.3,4.3,0,0,1,.91,1.25c.08.19.17.39.25.59a43.89,43.89,0,0,1-2.87,3.49,56.74,56.74,0,0,1-7.32,7.05c1.71,2.13,3.33,3.33,4.89,3.55a5.49,5.49,0,0,0,4.5-1.52,9.57,9.57,0,0,0,2.3-2.94,6.77,6.77,0,0,0,.77-3.09,3.21,3.21,0,0,0-.83-2.27l.89-.86a3.81,3.81,0,0,1,1,2.76,8.1,8.1,0,0,1-1.07,3.81,14,14,0,0,1-3.26,3.92C337.32,243.53,334.15,244.93,331.29,245Zm-9.64-14.61c.5-2.82.89-5.63,1.19-8.42,2.8.18,5.64.25,8.54.2l-1.14,1c-1.76.49-3.5.92-5.24,1.31-.68,1.65-1.39,3.3-2.14,4.93C322.46,229.79,322.06,230.1,321.65,230.4Zm12.89,2.94a14.48,14.48,0,0,0,1.17-1.26c-.06-.11-.17-.35-.34-.74a7.05,7.05,0,0,0-1.07-1.55,7.35,7.35,0,0,0-3.6-2.54,3,3,0,0,0-2.69.52c-1.68,1.43-.75,4.36,2.85,8.87A40.08,40.08,0,0,0,334.54,233.34Z"/><path class="cls-3" d="M121.89,311a8.31,8.31,0,0,1,.76-6.88,10.17,10.17,0,0,1,3.07-3.76,7.16,7.16,0,0,1,3.91-1.4,8.77,8.77,0,0,1,4.26.92,6.31,6.31,0,0,1,2.34,1.95,6,6,0,0,1,.71,1.17,4.61,4.61,0,0,1,1.22-.53l.61-.1.58.26-1.84,4.17-.95-.42a6.92,6.92,0,0,0-.07-2.32,5.42,5.42,0,0,0-.77-2,3.68,3.68,0,0,0-1.64-1.42,3.45,3.45,0,0,0-3.49.47c-1.26.81-2.53,2.5-3.79,5.09s-1.8,4.71-1.54,6.23a4.22,4.22,0,0,0,2.52,3.28,5,5,0,0,0,2.48.44,5.24,5.24,0,0,0,2.4-.78,3.89,3.89,0,0,0,1.55-1.75l.62.27a4.37,4.37,0,0,1-1.79,2,5.64,5.64,0,0,1-2.82.82A7,7,0,0,1,127,316,9.31,9.31,0,0,1,121.89,311Z"/><path class="cls-3" d="M134.91,318.7l1.64.31q3-7.06,6-14.14l-1.27-.94.14-.33,3.05,1.3c1.41.58,1.85,1.53,1.31,2.87l-1.44,3.56a3.8,3.8,0,0,1,1-.41,4.32,4.32,0,0,1,2.67.2,6,6,0,0,1,2.23,1.46,4.71,4.71,0,0,1,1.17,2,3.23,3.23,0,0,1-.05,2q-1.32,3.61-2.65,7.21l1.4.9-.12.34-3.3-1.22c-1.52-.57-2-1.54-1.5-2.88q1.13-2.91,2.24-5.82a3.88,3.88,0,0,0,.29-2.38,1.66,1.66,0,0,0-1-1.24,2.31,2.31,0,0,0-2,.23,4.21,4.21,0,0,0-.89.68l-3.33,8.23,1.37.94-.13.33q-3.53-1.4-7-2.9Z"/><path class="cls-3" d="M155.17,326.65a4.84,4.84,0,0,1-1.29-2,3.2,3.2,0,0,1,0-2l2.53-7.26-1.34-.85.12-.34,3.17,1.1c1.46.5,2,1.43,1.52,2.79-.66,2-1.31,3.95-2,5.93a3.82,3.82,0,0,0-.16,2.39,1.76,1.76,0,0,0,1.09,1.2,2.33,2.33,0,0,0,2-.37,6.11,6.11,0,0,0,.88-.73c.88-2.83,1.76-5.65,2.65-8.48-.46-.26-.91-.53-1.37-.81l.11-.34q3.44,1.09,6.9,2.1l-.1.35-1.59-.09q-1.62,5.46-3.23,10.93l-.26-.08a4.13,4.13,0,0,1-2.58-1.78,2.36,2.36,0,0,1-.33-1.11,5.63,5.63,0,0,1-1.17.77,4.29,4.29,0,0,1-3.2.1A6.18,6.18,0,0,1,155.17,326.65Z"/><path class="cls-3" d="M169.89,330.81a2.77,2.77,0,0,1-.61-2.59,4,4,0,0,1,.94-1.65,3.13,3.13,0,0,1,.67-.64c.73,0,1.52.11,2.37.2q2.85.31,5,.75l.18-.7a7.09,7.09,0,0,0,.21-3.74,2.44,2.44,0,0,0-1.82-1.5,3.29,3.29,0,0,0-.93-.12l-.37,0-.93,3.48h-.34a6.14,6.14,0,0,1-.7-.14,2,2,0,0,1-1.24-.85,1.69,1.69,0,0,1-.16-1.4,2.23,2.23,0,0,1,1.65-1.49,6.91,6.91,0,0,1,3.64.17,8.69,8.69,0,0,1,3.18,1.48,5.16,5.16,0,0,1,1.73,2.29,4.76,4.76,0,0,1,.14,2.78c-.49,2.11-1,4.21-1.46,6.32l1.48.7-.08.36-2.35-.55a3.31,3.31,0,0,1-2.21-1.44,2.38,2.38,0,0,1-.36-1,5.59,5.59,0,0,1-1.11.84,4.32,4.32,0,0,1-3.18.3A6.19,6.19,0,0,1,169.89,330.81ZM174.74,319c1.54-1,3.06-1.92,4.57-2.9q1.27,2.37,2.61,4.73l-.87-.21-2.31-2.31-3.13.92Zm1.69,12.59a5.86,5.86,0,0,0,.83-.79l.84-3.37a20.21,20.21,0,0,0-2.27-.45l-1.1-.16a3.75,3.75,0,0,0-.44.62,6.77,6.77,0,0,0-.71,1.68,3.42,3.42,0,0,0-.07,2,1.37,1.37,0,0,0,1,.92A2.31,2.31,0,0,0,176.43,331.62Zm5.21-14.12a1.76,1.76,0,0,0,.93-.36,1.8,1.8,0,0,0,.54-1,1.76,1.76,0,0,0,0-1.18,1.16,1.16,0,0,0-.81-.55,2.94,2.94,0,0,0-.5,0h-.21l-.32,1.3h-.1l-.08,0c-.82-.2-1.18-.51-1.08-.91.22-.86,1.07-1.09,2.57-.72,2,.47,2.8,1.33,2.51,2.59a1.41,1.41,0,0,1-.86,1,3.68,3.68,0,0,1-1.83.22l-.21.65-.66-.16C181.55,318,181.59,317.76,181.64,317.5Z"/><path class="cls-3" d="M184.07,334.52h1.64q1.11-5.16,2.21-10.33l-1.43-.67.07-.36,2.26.49a2.92,2.92,0,0,1,2.53,2.35,4.56,4.56,0,0,1,1-.89,4.08,4.08,0,0,1,3-.53,5.77,5.77,0,0,1,2.43,1,4.74,4.74,0,0,1,1.51,1.76,3.38,3.38,0,0,1,.33,2c-.42,2.52-.83,5.05-1.25,7.58l1.53.61-.06.35-3.43-.56c-1.58-.27-2.24-1.13-2-2.54l1.11-6.15a4,4,0,0,0-.16-2.38,1.66,1.66,0,0,0-1.18-1,2.21,2.21,0,0,0-1.89.61,3.81,3.81,0,0,0-.74.84q-.87,4.35-1.72,8.71l1.51.66-.07.35q-3.69-.7-7.35-1.51Z"/><path class="cls-3" d="M210.93,338a5.91,5.91,0,0,1-1.3-4.86,6.11,6.11,0,0,1,2.38-4.41,7.38,7.38,0,0,1,5.24-1.15,6.71,6.71,0,0,1,3.45,1.09,2.21,2.21,0,0,1,1,2,1.68,1.68,0,0,1-.63,1.26,2,2,0,0,1-1.44.37,6,6,0,0,1-.72-.11l-.3-.1c.1-1.19.21-2.39.32-3.58l-.35-.16a3,3,0,0,0-.9-.2,2.54,2.54,0,0,0-2.38,1.07,9.31,9.31,0,0,0-1.29,4.47,8.56,8.56,0,0,0,.36,4.54,2.62,2.62,0,0,0,2.21,1.51,4.29,4.29,0,0,0,2-.27,3.67,3.67,0,0,0,1.51-1.05,2.57,2.57,0,0,0,.63-1.45l.66,0a3,3,0,0,1-.78,1.77A4.28,4.28,0,0,1,218.7,340a6.14,6.14,0,0,1-2.68.27A7.46,7.46,0,0,1,210.93,338Z"/><path class="cls-3" d="M236.49,331.82a6.91,6.91,0,0,1,.71,3.32,6,6,0,0,1-2,4.63,8.5,8.5,0,0,1-10.31-.47,5.92,5.92,0,0,1-1.54-4.78,6.13,6.13,0,0,1,2.14-4.53,7.11,7.11,0,0,1,5.05-1.42,8.7,8.7,0,0,1,2.78.54c.46,0,.86,0,1.2-.08l.74-.07c0-1,.06-2,.08-3l.31-.07a3.87,3.87,0,0,1,.7,0,.94.94,0,0,1,.8.5,2.46,2.46,0,0,1,.28,1.3,1.63,1.63,0,0,1-.73,1.39,4.6,4.6,0,0,1-2.4.58A5.4,5.4,0,0,1,236.49,331.82Zm-4.61,7.71a10.23,10.23,0,0,0,.89-4.51,10.58,10.58,0,0,0-.55-4.56c-.43-.91-1-1.38-1.66-1.41s-1.28.39-1.79,1.26a10.37,10.37,0,0,0-1,4.49,10.1,10.1,0,0,0,.48,4.57,1.86,1.86,0,0,0,3.58.16Z"/><path class="cls-3" d="M239.22,340.81l1.6-.34c0-3.52,0-7,.05-10.56l-1.53-.37v-.36h2.29a3.15,3.15,0,0,1,2.38.91,3.34,3.34,0,0,1,.57.88,4.61,4.61,0,0,1,.81-1.09,3.73,3.73,0,0,1,2.6-1.12,5.52,5.52,0,0,1,2.62.54,4.37,4.37,0,0,1,1.79,1.61,4.88,4.88,0,0,1,.78-1.16,3.71,3.71,0,0,1,2.57-1.28,5.82,5.82,0,0,1,2.46.39A4.29,4.29,0,0,1,260,330.2a3.66,3.66,0,0,1,.74,1.95q.25,3.83.53,7.66l1.62.24,0,.36c-1.15.09-2.31.17-3.46.24-1.6.1-2.44-.58-2.51-2-.11-2.07-.23-4.15-.34-6.23a4.36,4.36,0,0,0-.64-2.31,1.43,1.43,0,0,0-1.19-.72,2.1,2.1,0,0,0-1.46,1,7,7,0,0,0-.5,1l.36,8.87,1.61.29v.36q-3.72.18-7.46.25v-.37c.53-.12,1.06-.26,1.58-.39l-.18-7.68a4.35,4.35,0,0,0-.57-2.32,1.42,1.42,0,0,0-1.17-.76,2.09,2.09,0,0,0-1.49,1,6.09,6.09,0,0,0-.53,1l.09,8.88,1.6.34v.36c-2.49,0-5,0-7.47,0Z"/><path class="cls-3" d="M271.91,339.21l1.55-.53c-.4-3.5-.81-7-1.21-10.5l-1.57-.18,0-.36,2.28-.26a2.94,2.94,0,0,1,3.15,1.42,4.74,4.74,0,0,1,.67-1.17,3.78,3.78,0,0,1,2.46-1.44,5.48,5.48,0,0,1,2.67.23,4.48,4.48,0,0,1,2,1.37,4.94,4.94,0,0,1,.63-1.24,3.73,3.73,0,0,1,2.41-1.58,5.75,5.75,0,0,1,2.49.09,4.17,4.17,0,0,1,1.93,1.11,3.47,3.47,0,0,1,1,1.84q.74,3.76,1.46,7.54l1.64,0,.07.36-3.41.65c-1.58.3-2.5-.28-2.75-1.69q-.54-3.07-1.09-6.15a4.26,4.26,0,0,0-.91-2.21A1.43,1.43,0,0,0,286,326a2.11,2.11,0,0,0-1.33,1.2,6.14,6.14,0,0,0-.38,1c.47,2.92.95,5.84,1.42,8.76.55,0,1.09.07,1.64.09l.06.36q-3.69.61-7.4,1.14l0-.36,1.54-.58c-.37-2.53-.75-5.07-1.12-7.6a4.34,4.34,0,0,0-.84-2.24,1.41,1.41,0,0,0-1.25-.61,2.07,2.07,0,0,0-1.37,1.16,7,7,0,0,0-.41,1c.39,2.93.77,5.87,1.16,8.8l1.63.15.05.35q-3.71.51-7.42.92Z"/><path class="cls-3" d="M298.61,333.93a5.88,5.88,0,0,1-2.79-4.18,7,7,0,0,1,.1-3.48,5.55,5.55,0,0,1,1.72-2.62,7.06,7.06,0,0,1,3-1.47,8,8,0,0,1,3.31-.11,5.25,5.25,0,0,1,2.52,1.16,4.18,4.18,0,0,1,1.34,2.15,3.63,3.63,0,0,1,.12,1c0,.15,0,.29,0,.43-.69.33-1.46.64-2.28.94a37.41,37.41,0,0,1-5.34,1.62,7,7,0,0,0,1.69,3.69,2.71,2.71,0,0,0,2.56.63,4.24,4.24,0,0,0,1.79-.88,3.75,3.75,0,0,0,1.09-1.48,2.53,2.53,0,0,0,.14-1.59l.64-.16a3,3,0,0,1-.17,1.93,4.33,4.33,0,0,1-1.41,1.77,6.41,6.41,0,0,1-2.46,1.12A7.55,7.55,0,0,1,298.61,333.93Zm4.2-5.84a6.55,6.55,0,0,0,.89-.33v-.54a7.37,7.37,0,0,0-1.39-4,1.63,1.63,0,0,0-1.54-.59c-1.25.29-1.44,2.34-.59,6.17A23.9,23.9,0,0,0,302.81,328.09Zm.4,9.65a1,1,0,0,1-.53-.68,1,1,0,0,1,.18-.85,1.26,1.26,0,0,1,.78-.53,1.33,1.33,0,0,1,.94.13,1,1,0,0,1,.55.68,1,1,0,0,1-.19.85,1.33,1.33,0,0,1-.8.52A1.24,1.24,0,0,1,303.21,337.74Z"/><path class="cls-3" d="M318.8,329.83l1.44-.8-3-10.12-1.59.1-.1-.35,2.22-.66a3.2,3.2,0,0,1,2.56.17,3,3,0,0,1,.81.67,4.86,4.86,0,0,1,.49-1.29,4.14,4.14,0,0,1,2.41-1.92,5.93,5.93,0,0,1,2.64-.29,4.69,4.69,0,0,1,2.18.8,3.23,3.23,0,0,1,1.25,1.6q1.29,3.61,2.56,7.24l1.65-.21.12.34c-1.1.4-2.21.79-3.31,1.17-1.53.53-2.53.1-3-1.26l-2-5.92a4,4,0,0,0-1.29-2,1.68,1.68,0,0,0-1.55-.34,2.25,2.25,0,0,0-1.37,1.46,3.63,3.63,0,0,0-.26,1.09c.9,2.82,1.79,5.64,2.69,8.46l1.65-.15.11.34q-3.6,1.17-7.21,2.23Z"/><path class="cls-3" d="M337.21,323.49a2.71,2.71,0,0,1-2-1.73,4.23,4.23,0,0,1-.21-1.89,3.49,3.49,0,0,1,.17-.91c.63-.4,1.31-.81,2.06-1.24q2.52-1.43,4.51-2.34l-.27-.67a6.89,6.89,0,0,0-2-3.14,2.48,2.48,0,0,0-2.38-.14,3.22,3.22,0,0,0-.83.45l-.29.24,1.29,3.36a2.9,2.9,0,0,1-.29.19,6.74,6.74,0,0,1-.65.3,2,2,0,0,1-1.51,0,1.71,1.71,0,0,1-1-1,2.22,2.22,0,0,1,.48-2.18,6.91,6.91,0,0,1,3.07-2,8.69,8.69,0,0,1,3.48-.68,5.22,5.22,0,0,1,2.77.82,4.78,4.78,0,0,1,1.75,2.17l2.53,6,1.63-.31.15.33-2.26,1a3.37,3.37,0,0,1-2.66.14,2.43,2.43,0,0,1-.9-.62,5,5,0,0,1-.42,1.33A4.34,4.34,0,0,1,341,323,6.28,6.28,0,0,1,337.21,323.49Zm-3-12.39c.69-1.68,1.37-3.35,2-5q2.44,1.15,4.93,2.27l-.84.34c-1.08-.16-2.17-.32-3.25-.5-.67.87-1.34,1.74-2,2.6Zm8.8,9.19a6.37,6.37,0,0,0,.21-1.13l-1.3-3.22a22.07,22.07,0,0,0-2.13,1q-.72.39-1,.51a5.07,5.07,0,0,0,0,.77,6.89,6.89,0,0,0,.4,1.78,3.54,3.54,0,0,0,1.15,1.69,1.38,1.38,0,0,0,1.32.18A2.38,2.38,0,0,0,343,320.29Zm-3-13.38c-.14-1.24-.29-2.48-.44-3.72l3-1.28c-.58,1.55-1.16,3.1-1.77,4.65Z"/><path class="cls-3" d="M354.55,316.71a4.81,4.81,0,0,1-2.33-.57,3.19,3.19,0,0,1-1.39-1.48c-1-2.35-2.07-4.69-3.11-7l-1.57.3-.15-.33,3.09-1.37c1.43-.64,2.44-.32,3,1,.88,1.89,1.75,3.77,2.62,5.66a3.78,3.78,0,0,0,1.52,1.85,1.79,1.79,0,0,0,1.64.12,2.33,2.33,0,0,0,1.23-1.65,5.44,5.44,0,0,0,.15-1.13c-1.29-2.67-2.57-5.34-3.86-8l-1.57.35-.15-.32q3.3-1.58,6.57-3.24l.16.32-1.24,1,5.11,10.18-.24.13a4.31,4.31,0,0,1-3.15.48,2.36,2.36,0,0,1-1-.58,5.65,5.65,0,0,1-.34,1.36,4.43,4.43,0,0,1-2.3,2.29A6.3,6.3,0,0,1,354.55,316.71Z"/></g><g id="Layer_3" data-name="Layer 3"><path class="cls-4" d="M58.11,18.18c-2.46,4-7.45,15.49-10.86,25-2.67,7.5-3.65,9.56-5.31,11.7A45.3,45.3,0,0,0,33.16,72.3c-1.65,5.84-1.9,7.46-1.85,11.62a57.16,57.16,0,0,0,2.63,16.41,17,17,0,0,1,.62,7.81c-.18,2.51-.44,4.72-.52,5s-.78-1.43-1.57-3.79c-2.42-7-8.42-15.47-14.54-20.47l-2.77-2.28-.38-9.21c-.17-5-.31-11.87-.33-15.15,0-7.83-.28-8.8-1.26-3.91-1,5.1-2.06,17.94-2,24.78,0,3,0,7-.15,9-.86,13.27,2,23.81,9,33.15,2.59,3.47,8.67,9.55,11.6,11.49,1.6,1.07,1.66,1.41,1.84,5.66.1,2.48.16,4.9.19,5.34s-.64-.24-1.4-1.55A53.5,53.5,0,0,0,16,129.39c-1.75-1.11-3.67-2.38-4.15-2.79-1.11-.87-3.36-9-6.38-22.85-1.13-5.12-2.11-9.44-2.21-9.63-.59-1-.58,4.79,0,10.91a156.41,156.41,0,0,0,4.31,24.15c.8,3.07,1.74,7.32,2,9.48,2.1,14,9.85,25.38,22.59,33.28l3.93,2.45,1.06,5.16c.59,2.85,1,5.32,1,5.53s-.8-.45-1.65-1.46c-4-5-10.79-10-17.87-13.16l-4.2-1.87-3.27-6.73c-1.82-3.69-4.8-10.12-6.69-14.32S1,139.69.71,139.45c-.66-.73.33,3.92,2,9.53a199.47,199.47,0,0,0,7.58,20.25,40.71,40.71,0,0,1,2.31,6.67c2.55,11.1,8.3,20.73,16.11,26.87,3.51,2.77,11.05,7.2,13.41,7.88a5.44,5.44,0,0,1,2.48,1.43A35.66,35.66,0,0,1,47,219c.12.36-1.17-.29-2.79-1.47A53.14,53.14,0,0,0,28.75,210l-4.42-1.29-3.11-4C18,200.75,15,196.6,8,186.94c-3.69-5.11-4.16-5.73-4.32-5.18-.34,1.16,9.17,17.93,14.77,25.88a45.22,45.22,0,0,1,4.19,7.87c5.28,14.46,15,23.88,29.92,29.1l5.84,2,3.52,7c1.94,3.84,3.16,6.75,2.65,6.44a55.23,55.23,0,0,0-12-4.95,62.33,62.33,0,0,0-36.59.8,18.55,18.55,0,0,0-4.32,1.74,27.8,27.8,0,0,0,4.86-.6,94.47,94.47,0,0,1,21.23-.64c14.12,1.49,31.24,9.53,35.75,16.89L75.25,276l-1.94-.84c-10.25-4.67-21.42-6.39-31.51-4.86-4.33.65-5.32,1.23-2,1.27,11.07,0,26.09,4.21,35.67,9.89,5.21,3.09,7.34,5.13,13.31,12.7,6.92,8.83,9.64,11.47,12.59,12.38,1.81.53,2.59.48,3.59-.15,3.23-2.28,1.75-5.65-6.91-16C76,264.27,61.6,238.23,51.79,206.92c-8.35-26.58-12.38-51.9-13.08-82.31-.15-5.27-.21-12-.14-14.87l.11-5.25,2.83-3.92c7-9.75,10.07-18.71,10-28.78a60.35,60.35,0,0,0-2.6-15.42l-.92-2.83,5.75-18.83C58.69,18.45,59.28,16.23,58.11,18.18Z"/><path class="cls-4" d="M75.31,50.33c-.32.72-1.61,6.29-3,12.38S69.34,76.12,68.5,79L67,84.21l-4.39,3.3C52.33,95.21,46.46,104,44.06,115.05a67.91,67.91,0,0,0-1.16,16.72l.19,2,4.25-2.8c9.55-6.22,15.56-13,19.69-22.35,2.07-4.68,3.39-11.28,3.68-18.28a59.38,59.38,0,0,1,1.52-9.91,168.08,168.08,0,0,0,3.7-29.19C75.91,49.19,75.88,49.13,75.31,50.33Z"/><path class="cls-4" d="M76.61,91c-.39,2.07-2.25,9.6-4.16,16.73l-3.41,13-4,3.09a60.25,60.25,0,0,0-13.4,14.58c-2.81,4.58-5.75,14.14-6.1,20-.27,4.28.23,13.26.72,13.84s8.65-5.77,12.36-9.71c6.06-6.58,7.64-9.39,10.24-18.33,1.83-6.29,2.23-8.62,2.33-12.14a54.77,54.77,0,0,1,2-12,219.12,219.12,0,0,0,4.88-28.4C78.43,86.45,77.62,86.05,76.61,91Z"/><path class="cls-4" d="M79.94,122.49c-.32.72-1.63,7.1-3,14.29-3.13,17.14-3.07,16.93-6.23,19.56-9.31,7.65-15.8,18.52-17.4,28.9-1,6.8-.37,20.94,1,21.34.76.22,8.86-7,11.62-10.52a41.75,41.75,0,0,0,8.52-15.78,47.18,47.18,0,0,0,2.1-14.93c.07-2.1.62-7.56,1.35-12.14,1.7-11.45,2.87-24.46,2.59-30.05C80.49,121.34,80.46,121.27,79.94,122.49Z"/><path class="cls-4" d="M84.67,155.53c-.44,3.37-3.5,20.47-4.68,26s-1.2,5.65-4.06,9.29c-5.29,6.74-7.11,10.19-9.29,17.68-1.72,5.93-2,7.38-1.92,11.66a65.53,65.53,0,0,0,.74,8.88c.85,4.77,2.85,11.57,3.46,11.74s5.5-5.43,8-9.1a46.22,46.22,0,0,0,7-38.92c-.89-3.31-.91-4.74-.2-9.6a216.57,216.57,0,0,0,2-24.06C85.73,154.32,85,152,84.67,155.53Z"/><path class="cls-4" d="M99.85,227.77c-10,0-19.62,7.86-22.8,18.61-.6,2.06-.5,2.47,2.2,7.45l2.83,5.24-.48-3.41A25.05,25.05,0,0,1,84.26,242a20.77,20.77,0,0,1,15.08-10.82c4.33-.65,10.26.91,13.31,3.54a26.85,26.85,0,0,1,5.86,9.28l.72,1.85-.22-2.25c-.51-5.38-2.66-9.22-6.73-12.1A24.81,24.81,0,0,0,99.85,227.77Z"/><path class="cls-4" d="M90.48,243.14c-4.07,5.74-6.53,14.18-5.62,19.13.17,1.09,1.73,4,3.36,6.43s3,4.08,2.77,3.59-.74-2.51-1.31-4.47a36.83,36.83,0,0,1-1.37-7.49c-.23-3.33,0-4.73,1.54-10.18a77.59,77.59,0,0,1,3-8.68C94.16,238.54,93.26,239.2,90.48,243.14Z"/><path class="cls-4" d="M434.42,39.14,440.17,58l-.92,2.83a59.92,59.92,0,0,0-2.6,15.42c-.13,10.07,3,19,10,28.78l2.83,3.92.11,5.25c.07,2.87,0,9.6-.15,14.87-.69,30.41-4.72,55.73-13.07,82.31-9.81,31.31-24.2,57.35-46.25,83.5-8.67,10.32-10.14,13.69-6.92,16,1,.63,1.78.68,3.59.15,2.95-.91,5.67-3.55,12.59-12.38,6-7.57,8.11-9.61,13.31-12.7,9.58-5.68,24.61-9.88,35.67-9.89,3.32,0,2.33-.62-2-1.27-10.1-1.53-21.26.19-31.52,4.86l-1.93.84,1.67-2.67c4.51-7.36,21.64-15.4,35.76-16.89a94.48,94.48,0,0,1,21.23.64,26.71,26.71,0,0,0,4.86.6,18.79,18.79,0,0,0-4.32-1.74,62.37,62.37,0,0,0-36.6-.8,55.66,55.66,0,0,0-12,4.95c-.51.31.72-2.6,2.65-6.44l3.52-7,5.85-2c14.94-5.22,24.63-14.64,29.91-29.09a44.36,44.36,0,0,1,4.2-7.88c5.59-7.95,15.1-24.72,14.77-25.88-.16-.55-.63.08-4.33,5.18-6.95,9.66-10,13.81-13.18,17.85l-3.1,3.95-4.42,1.29a53.45,53.45,0,0,0-15.5,7.45c-1.62,1.18-2.9,1.83-2.79,1.47a34.88,34.88,0,0,1,2.42-6.87,5.45,5.45,0,0,1,2.47-1.43c2.37-.68,9.91-5.11,13.41-7.88,7.81-6.14,13.57-15.77,16.12-26.87a39.79,39.79,0,0,1,2.31-6.67,199.47,199.47,0,0,0,7.58-20.25c1.69-5.61,2.68-10.26,2-9.53-.26.24-2,3.9-3.81,8.09s-4.87,10.63-6.68,14.32L473.63,173l-4.19,1.87c-7.09,3.21-13.82,8.17-17.87,13.16-.85,1-1.59,1.66-1.65,1.46s.42-2.68,1-5.53l1.06-5.16,3.92-2.45c12.75-7.9,20.49-19.31,22.59-33.28.3-2.16,1.24-6.41,2-9.48a156.4,156.4,0,0,0,4.32-24.15c.61-6.12.62-11.9,0-10.91-.11.19-1.09,4.51-2.21,9.63-3,13.8-5.28,22-6.39,22.85-.48.41-2.4,1.68-4.15,2.79a53.57,53.57,0,0,0-16.33,16.74c-.77,1.31-1.44,2-1.4,1.56s.09-2.87.19-5.35c.18-4.25.24-4.59,1.84-5.66,2.92-1.94,9-8,11.59-11.49,7-9.34,9.86-19.88,9-33.15-.12-1.93-.2-5.94-.15-9,.09-6.84-.92-19.68-2-24.78-1-4.89-1.31-3.92-1.26,3.91,0,3.28-.16,10.14-.34,15.15L473,91l-2.77,2.28c-6.13,5-12.12,13.44-14.55,20.47-.78,2.36-1.49,4-1.57,3.79s-.33-2.47-.52-5a17,17,0,0,1,.62-7.81,57.17,57.17,0,0,0,2.64-16.41c.05-4.16-.21-5.77-1.85-11.62a45.46,45.46,0,0,0-8.79-17.45c-1.65-2.14-2.63-4.2-5.31-11.7-3.41-9.48-8.39-21-10.86-25C428.82,20.66,429.42,22.88,434.42,39.14Z"/><path class="cls-4" d="M412.18,55.64a168,168,0,0,0,3.69,29.19,58.35,58.35,0,0,1,1.52,9.91c.29,7,1.61,13.6,3.68,18.28,4.13,9.32,10.15,16.13,19.7,22.35l4.25,2.8.19-2a68.9,68.9,0,0,0-1.16-16.72c-2.4-11.08-8.28-19.84-18.53-27.54l-4.4-3.3-1.52-5.23c-.83-2.86-2.58-10.2-3.86-16.26s-2.63-11.67-2.95-12.39C412.23,53.56,412.19,53.62,412.18,55.64Z"/><path class="cls-4" d="M410,96.18a217.43,217.43,0,0,0,4.88,28.4,56,56,0,0,1,2,12c.09,3.52.5,5.85,2.33,12.14,2.6,8.94,4.18,11.75,10.24,18.33,3.7,3.94,11.79,10.37,12.36,9.71s1-9.56.72-13.84c-.35-5.89-3.3-15.45-6.1-20a60.25,60.25,0,0,0-13.4-14.58l-4-3.09-3.4-13c-1.91-7.13-3.78-14.66-4.16-16.73C410.48,90.48,409.67,90.88,410,96.18Z"/><path class="cls-4" d="M407.54,127.59c-.28,5.59.89,18.6,2.58,30,.73,4.58,1.29,10,1.35,12.14a47.18,47.18,0,0,0,2.11,14.93,41.61,41.61,0,0,0,8.52,15.78C424.86,204,433,211.23,433.71,211c1.41-.41,2-14.55,1.05-21.35-1.61-10.38-8.09-21.25-17.41-28.9-3.16-2.62-3.1-2.42-6.23-19.56-1.33-7.19-2.64-13.57-3-14.29C407.65,125.71,407.61,125.77,407.54,127.59Z"/><path class="cls-4" d="M402.41,163.54a214.19,214.19,0,0,0,2,24.06c.71,4.86.68,6.29-.21,9.6a46.29,46.29,0,0,0,7,38.92c2.54,3.67,7.49,9.26,8.05,9.1s2.6-7,3.45-11.74a62.46,62.46,0,0,0,.74-8.88c.07-4.27-.19-5.73-1.92-11.66-2.17-7.49-4-10.94-9.28-17.68-2.86-3.64-2.88-3.69-4.07-9.29s-4.24-22.64-4.67-26C403.06,156.42,402.38,158.75,402.41,163.54Z"/><path class="cls-4" d="M375.83,236c-4.07,2.88-6.22,6.72-6.73,12.1l-.22,2.25.72-1.85a26.85,26.85,0,0,1,5.86-9.28c3.05-2.63,9-4.19,13.3-3.54a20.79,20.79,0,0,1,15.09,10.82,25,25,0,0,1,2.65,13.62L406,263.5l2.84-5.24c2.69-5,2.79-5.39,2.19-7.45-3.18-10.75-12.83-18.62-22.8-18.61A24.87,24.87,0,0,0,375.83,236Z"/><path class="cls-4" d="M395.29,245.91a74.56,74.56,0,0,1,3,8.67c1.53,5.45,1.77,6.85,1.55,10.19a38.29,38.29,0,0,1-1.37,7.48c-.57,2-1.18,4-1.32,4.47s1.09-1.13,2.78-3.59,3.18-5.34,3.36-6.43c.9-4.95-1.55-13.39-5.62-19.13C394.85,243.64,394,243,395.29,245.91Z"/><path class="cls-2" d="M249,217.89c-4.28.21-8.46.5-12.65.31-3.51-.15-7-.37-10.49-.73-2.49-.26-4.92-.77-7.36-1.24a98.6,98.6,0,0,1-12.43-3.33A97.37,97.37,0,0,1,189.86,206a42.52,42.52,0,0,1-13.11-11.13,29.43,29.43,0,0,1-6-11.55,19.67,19.67,0,0,1-.56-6.38c.53-5.4,2.95-9.87,6.25-14,2.3-2.9,4.92-5.51,7.32-8.32a2.89,2.89,0,0,0,.84-1.29c-1.52.49-2.84,1-4.21,1.32-2.41.51-4.81.62-6.8-1.29a8.39,8.39,0,0,1-2.36-4.9,25,25,0,0,1-.26-2.59c-.07-1.25-.31-1.4-1.44-.9a26.11,26.11,0,0,1-13.58,2.2c-4.16-.46-8.18-1.4-11.62-4a6.47,6.47,0,0,1-2-2.53,2.8,2.8,0,0,1,.73-3.28,1,1,0,0,1,1.14-.22c5.09,2.66,10.29,2.11,15.53.57a65.13,65.13,0,0,0,10.22-4.24c6-2.91,11.32-6.78,16.74-10.55.33-.23.64-.5,1-.83a16.78,16.78,0,0,0-3.84-2.88c-5.61-3.76-11.27-7.45-16.91-11.16q-8-5.25-16-10.49c-.7-.46-.93-.89-.38-1.65,2.55-3.51,5.06-7,7.6-10.56.83-1.14.94-1.11,2-.21,3.54,2.94,7.1,5.85,10.65,8.78q8.34,6.89,16.67,13.77c2.7,2.24,5.43,4.44,8.16,6.66.25.2.46.49.94.45a4.8,4.8,0,0,0-1.15-1.9c-3.9-5.33-7.85-10.63-11.75-16-3.16-4.32-6.29-8.67-9.44-13a3.26,3.26,0,0,0-.49-.62c-.63-.55-.59-1,0-1.56,3-2.71,6-5.44,8.94-8.18.81-.75,1.24-.26,1.65.44,1.83,3.09,3.67,6.16,5.48,9.26,2.28,3.9,4.53,7.83,6.8,11.74l6.53,11.26c1.32,2.27,1.28,2.23,3.21.54,6.28-5.5,12.31-11.25,18.22-17.14,4.49-4.47,8.86-9.07,13.23-13.66a10.05,10.05,0,0,1,7-3.2,8.37,8.37,0,0,1,5.9,1.91c3,2.53,5.87,5.1,8.79,7.67,4.3,3.79,8.66,7.52,13,11.3,5.05,4.43,10.14,8.8,15.32,13.09,8.51,7,16.89,14.27,26.1,20.42a34.6,34.6,0,0,0,12.83,5.19,22,22,0,0,0,9.55-.26,93.25,93.25,0,0,0,8.77-3.67c.81-.41.9.25.87.81a9.1,9.1,0,0,1-2.81,5.91c-3.2,3.24-7.32,4.53-11.69,5.17-1.6.23-3.22.37-4.84.45a28.55,28.55,0,0,1-11.82-2.13,79,79,0,0,1-19-11.29,287.23,287.23,0,0,1-25.73-22.83c-5.94-5.8-11.77-11.71-17.69-17.54-2.22-2.19-5.09-2.57-8-2a14.6,14.6,0,0,0-8,4.94c-3.35,3.78-6.85,7.43-10.46,11-4.33,4.27-8.91,8.26-13.42,12.33-.87.78-1.76,1.54-2.68,2.26a1,1,0,0,0-.32,1.45c1.78,3.11,3.53,6.24,5.34,9.33a4,4,0,0,0,3.3,1.89c5,.49,10,1.09,14.94,1.65,2.21.25,4.41.55,6.61.84a3.65,3.65,0,0,1,3.15,2.83c.13.73,0,1.11-.88,1.19-4.39.41-8.8.72-13.15,1.38-3.54.53-7.09.94-10.62,1.58-3.25.58-6.57.85-9.81,1.53a12.52,12.52,0,0,0-6.15,2.94c-1.42,1.33-1.35,2.52.09,3.88a18.53,18.53,0,0,0,4.53,2.75,39.71,39.71,0,0,0,11.75,3.48,93.76,93.76,0,0,0,20.42,1c5-.27,10.09-.44,15.12-1,4.27-.46,8.55-.88,12.8-1.47,4-.56,8-1.26,12-2.16,3.75-.84,7.47-1.8,11.21-2.71.58-.14,1.34-.4,1.76.28s0,1.28-.43,1.85a11.83,11.83,0,0,1-4,3.09,78.8,78.8,0,0,1-14.68,6.17,91.22,91.22,0,0,1-14.13,3.05c-3.37.51-6.81.74-10.23,1-6.94.45-13.88.52-20.82.52-.46,0-1.08-.16-1.16.57s.5.83,1,1a76.79,76.79,0,0,0,13.26,2,64.92,64.92,0,0,0,9,.41,135.63,135.63,0,0,0,18.39-2.16,124.53,124.53,0,0,0,14.05-3.84,103.48,103.48,0,0,0,10.27-4.15,4,4,0,0,1,5.71,2.71c.17.6-.22.79-.61,1a63.65,63.65,0,0,1-10.06,5.16A72.61,72.61,0,0,1,277.19,168c-3.46.89-7,1.51-10.52,2.1s-6.87.93-10.29,1.47c-1.69.26-3.39.17-5.07.43-.37.06-.87,0-1,.49.19.49.62.38,1,.41a79.36,79.36,0,0,0,17.49-.72,98.76,98.76,0,0,0,14.33-3.06,65.43,65.43,0,0,0,16.61-7.61,1.25,1.25,0,0,1,1.85.19c6.22,6.08,8.06,13.41,6.25,21.77-1.18,5.38-4.13,9.81-7.74,13.87-5.11,5.75-11.54,9.49-18.58,12.36q-5.82,2.37-11.83,4.17a110.42,110.42,0,0,1-15.55,3.45c-1.63.25-3.31.29-5.05.56"/></g></svg>